<?xml version="1.0" encoding="utf-8"?>
<svg version="1.1" id="Layer_1" xmlns="http://www.w3.org/2000/svg" xmlns:xlink="http://www.w3.org/1999/xlink" x="0px" y="0px"
     viewBox="0 0 200 60" style="enable-background:new 0 0 200 60;" xml:space="preserve">
<style type="text/css">
	.st0{fill:#9E9E9E;}
	.st1{fill:none;}
</style>
    <g id="_x23_9e9e9eff">
	<path class="st0" d="M100.6,11.4c2.2-2.6,4.7-5,7.4-7c3.9,1.4,6.4,4.7,9.3,7.4c5.2,5.4,10.8,10.5,15.9,16.1
		c1.4,1.3,2.1,3.5,1.1,5.2c-6,6.1-13.4,11.7-22.3,12.3c-7.6,0.4-14.5-3.5-20.3-7.9c-2.8-2.4-5.7-4.9-7.6-8.1c-2.1,1.1-4,2.7-5.7,4.4
		c4.8,4.5,9.4,9.2,14,14c1.8-1.5,3.2-4,5.8-4c1.8,1.1,3.5,2.6,4.6,4.5c0.9,3.8-3.1,5.8-5.3,8.3c-1.7,2.2-4.8,1.3-6.4-0.5
		c-5.8-5.5-11.3-11.3-17-16.9c-2.1-2.1-4.3-4.2-5.7-6.9c-0.7-2.2,1.4-3.6,2.8-4.9c4.8-4.3,10.4-8.3,16.8-9.6
		c4.6-0.3,9.6-0.7,13.8,1.5c6.7,3.1,12.9,7.8,17.2,14c2.1-1,3.9-2.5,5.7-4c-4.5-4.8-9.4-9.4-13.9-14.1c-2.3,1.2-3.8,4.6-6.8,3.5
		C102,16.8,98.9,14.4,100.6,11.4 M90.8,26.5c3.1-0.2,7,2,9.6-0.2C97.3,25.8,93.6,24.4,90.8,26.5 M101.8,35.3c2.8,2.7,7,2.1,10.4,1.1
		C108.8,35.9,105.3,35.5,101.8,35.3z"/>
</g>
    <g id="_x23_d1d1d1ff">
	<path class="st1" d="M90.8,26.5c2.8-2.2,6.5-0.7,9.6-0.2C97.8,28.6,93.9,26.3,90.8,26.5z"/>
        <path class="st1" d="M101.8,35.3c3.5,0.2,7,0.6,10.4,1.1C108.9,37.4,104.6,38,101.8,35.3z"/>
</g>
</svg>